<?xml version="1.0" encoding="UTF-8"?>
<svg xmlns="http://www.w3.org/2000/svg" xmlns:xlink="http://www.w3.org/1999/xlink" width="36px" height="36px" viewBox="0 0 36 36" version="1.1">
<g id="surface1">
<path style=" stroke:none;fill-rule:nonzero;fill:rgb(0%,0%,0%);fill-opacity:1;" d="M 24.929688 0 C 25.011719 0 25.09375 0 25.183594 0 C 25.390625 2.539062 24.421875 4.4375 23.242188 5.808594 C 22.085938 7.171875 20.503906 8.496094 17.945312 8.296875 C 17.773438 5.792969 18.746094 4.039062 19.921875 2.667969 C 21.011719 1.390625 23.011719 0.253906 24.929688 0 Z M 24.929688 0 "/>
<path style=" stroke:none;fill-rule:nonzero;fill:rgb(0%,0%,0%);fill-opacity:1;" d="M 32.675781 26.425781 C 32.675781 26.449219 32.675781 26.472656 32.675781 26.496094 C 31.957031 28.675781 30.929688 30.542969 29.679688 32.273438 C 28.535156 33.847656 27.132812 35.964844 24.632812 35.964844 C 22.472656 35.964844 21.039062 34.574219 18.824219 34.535156 C 16.480469 34.5 15.191406 35.699219 13.050781 36 C 12.804688 36 12.558594 36 12.320312 36 C 10.746094 35.773438 9.476562 34.527344 8.550781 33.402344 C 5.824219 30.085938 3.71875 25.804688 3.324219 20.320312 C 3.324219 19.785156 3.324219 19.25 3.324219 18.710938 C 3.492188 14.785156 5.398438 11.597656 7.933594 10.050781 C 9.269531 9.230469 11.109375 8.527344 13.15625 8.839844 C 14.03125 8.976562 14.929688 9.277344 15.714844 9.574219 C 16.460938 9.859375 17.390625 10.367188 18.273438 10.339844 C 18.871094 10.324219 19.464844 10.011719 20.066406 9.792969 C 21.832031 9.15625 23.558594 8.425781 25.839844 8.769531 C 28.578125 9.183594 30.523438 10.398438 31.726562 12.277344 C 29.40625 13.753906 27.574219 15.976562 27.890625 19.769531 C 28.167969 23.21875 30.171875 25.234375 32.675781 26.425781 Z M 32.675781 26.425781 "/>
</g>
</svg>
