<?xml version="1.0" standalone="no"?>
<!DOCTYPE svg PUBLIC "-//W3C//DTD SVG 20010904//EN"
 "http://www.w3.org/TR/2001/REC-SVG-20010904/DTD/svg10.dtd">
<svg version="1.0" xmlns="http://www.w3.org/2000/svg"
 width="400.000000pt" height="400.000000pt" viewBox="0 0 400.000000 400.000000"
 preserveAspectRatio="xMidYMid meet">
<metadata>
Created by potrace 1.14, written by Peter Selinger 2001-2017
</metadata>
<g transform="translate(0.000000,400.000000) scale(0.100000,-0.100000)"
fill="#000000" stroke="none">
<path d="M2526 3927 c-34 -35 -81 -75 -106 -89 -55 -32 -178 -73 -245 -82 -28
-4 -61 -9 -75 -11 -14 -2 -105 -16 -203 -30 -226 -33 -311 -55 -417 -107 -142
-69 -245 -193 -285 -344 -16 -57 -23 -233 -11 -271 3 -10 8 -34 11 -53 18
-103 94 -237 189 -331 98 -98 213 -170 343 -215 l53 -19 -84 -80 c-299 -288
-468 -628 -520 -1053 -5 -37 -21 -61 -125 -180 -205 -238 -335 -336 -465 -349
-99 -10 -175 35 -216 129 -19 43 -23 71 -23 143 1 120 21 199 136 530 60 172
68 206 51 212 -30 10 -193 -369 -237 -552 -62 -253 -23 -457 113 -596 124
-126 282 -144 432 -47 68 44 180 153 267 261 30 37 55 66 57 64 1 -1 5 -30 8
-65 15 -141 63 -304 118 -400 143 -250 400 -375 773 -375 350 0 665 140 940
417 248 250 369 516 374 819 4 188 -42 319 -143 415 -101 95 -202 136 -369
147 -181 13 -238 27 -332 85 -180 109 -264 126 -427 85 -105 -26 -290 -127
-388 -211 -111 -96 -145 -127 -215 -198 -45 -44 -114 -119 -154 -165 l-74 -84
7 39 c12 59 45 151 84 229 114 230 386 512 702 728 120 82 253 166 471 300
141 86 267 168 281 182 35 35 151 252 144 270 -3 8 -11 15 -19 15 -7 0 -87
-43 -178 -96 -90 -53 -202 -119 -249 -147 -130 -76 -247 -133 -335 -163 -147
-50 -319 -33 -475 46 -172 87 -340 281 -400 459 l-21 64 23 24 c57 62 200 116
363 138 17 2 59 8 95 14 36 5 83 13 105 16 23 3 52 8 65 10 14 3 39 8 55 11
125 22 215 50 278 84 132 73 259 193 322 304 38 68 47 98 38 121 -11 31 -47
14 -107 -48z m-164 -2255 c26 -11 77 -43 114 -71 79 -60 138 -80 255 -86 238
-11 361 -49 459 -141 84 -79 118 -205 86 -316 -37 -127 -209 -327 -396 -461
-153 -109 -422 -232 -554 -252 -17 -3 -55 -9 -85 -14 -55 -9 -277 -6 -321 4
-14 3 -38 8 -55 11 -279 49 -484 239 -554 514 -38 151 -46 127 93 286 128 145
242 255 361 347 232 178 451 244 597 179z"/>
<path d="M2280 1262 c0 -8 -14 -43 -32 -78 -30 -61 -118 -164 -140 -164 -5 0
15 -24 46 -53 31 -29 56 -56 56 -60 0 -4 11 -24 24 -45 13 -20 30 -54 37 -74
l13 -37 38 80 c26 52 56 96 91 130 l52 50 -56 58 c-35 36 -70 86 -93 132 -19
41 -36 68 -36 61z"/>
<path d="M2991 2632 c-17 -32 -13 -73 14 -131 27 -58 22 -84 -15 -74 -27 7
-37 22 -44 65 -18 117 -36 155 -55 120 -11 -21 -10 -31 8 -99 10 -35 9 -48 -4
-73 -8 -16 -20 -31 -25 -31 -36 -5 -46 -1 -57 21 -8 15 -12 49 -9 87 4 71 -10
95 -37 65 -24 -27 -31 -68 -13 -75 12 -5 16 -21 16 -62 0 -57 21 -114 43 -116
54 -7 83 8 99 51 l9 25 21 -27 c38 -53 96 -31 115 42 11 39 6 65 -30 164 -22
61 -26 66 -36 48z"/>
<path d="M3260 2391 c-52 -21 -102 -41 -110 -44 -8 -3 -121 -48 -250 -100
l-235 -95 -18 -41 c-27 -62 -21 -73 28 -51 124 58 605 263 643 275 23 7 62 59
62 83 0 18 -17 15 -120 -27z"/>
</g>
</svg>
