<?xml version="1.0" encoding="UTF-8"?>
<svg xmlns="http://www.w3.org/2000/svg" xmlns:xlink="http://www.w3.org/1999/xlink" width="36px" height="36px" viewBox="0 0 36 36" version="1.1">
<defs>
<linearGradient id="linear0" gradientUnits="userSpaceOnUse" x1="609.77" y1="1190.114" x2="609.77" y2="21.084" gradientTransform="matrix(0.0295172,0,0,0.0293874,0.00116489,0)">
<stop offset="0" style="stop-color:rgb(12.54902%,69.019608%,21.960784%);stop-opacity:1;"/>
<stop offset="1" style="stop-color:rgb(37.647059%,83.921569%,41.568627%);stop-opacity:1;"/>
</linearGradient>
</defs>
<g id="surface1">
<path style=" stroke:none;fill-rule:nonzero;fill:rgb(87.843137%,87.843137%,87.843137%);fill-opacity:1;" d="M 30.753906 5.230469 C 27.371094 1.859375 22.871094 0.00390625 18.074219 0 C 8.195312 0 0.15625 8.003906 0.152344 17.835938 C 0.152344 20.980469 0.976562 24.050781 2.542969 26.757812 L 0 36 L 9.503906 33.519531 C 12.121094 34.941406 15.066406 35.691406 18.066406 35.691406 L 18.074219 35.691406 C 27.953125 35.691406 35.996094 27.6875 36 17.851562 C 36 13.085938 34.136719 8.601562 30.753906 5.230469 Z M 18.074219 32.679688 L 18.070312 32.679688 C 15.394531 32.675781 12.773438 31.960938 10.488281 30.609375 L 9.941406 30.289062 L 4.304688 31.761719 L 5.808594 26.289062 L 5.457031 25.730469 C 3.964844 23.367188 3.175781 20.640625 3.179688 17.839844 C 3.179688 9.664062 9.863281 3.011719 18.082031 3.011719 C 22.058594 3.015625 25.800781 4.558594 28.613281 7.359375 C 31.425781 10.164062 32.972656 13.890625 32.972656 17.851562 C 32.96875 26.027344 26.285156 32.679688 18.074219 32.679688 Z M 18.074219 32.679688 "/>
<path style=" stroke:none;fill-rule:nonzero;fill:url(#linear0);" d="M 0.824219 34.972656 L 3.25 26.152344 C 1.753906 23.570312 0.964844 20.640625 0.96875 17.640625 C 0.972656 8.257812 8.644531 0.621094 18.070312 0.621094 C 22.648438 0.621094 26.941406 2.394531 30.171875 5.613281 C 33.398438 8.828125 35.175781 13.105469 35.175781 17.65625 C 35.171875 27.042969 27.5 34.679688 18.070312 34.679688 C 18.070312 34.679688 18.074219 34.679688 18.070312 34.679688 L 18.066406 34.679688 C 15.203125 34.679688 12.390625 33.960938 9.890625 32.605469 Z M 0.824219 34.972656 "/>
<path style=" stroke:none;fill-rule:evenodd;fill:rgb(100%,100%,100%);fill-opacity:1;" d="M 13.644531 10.265625 C 13.316406 9.53125 12.964844 9.515625 12.648438 9.503906 C 12.390625 9.492188 12.097656 9.492188 11.800781 9.492188 C 11.507812 9.492188 11.027344 9.601562 10.621094 10.042969 C 10.214844 10.484375 9.070312 11.550781 9.070312 13.71875 C 9.070312 15.890625 10.65625 17.984375 10.878906 18.277344 C 11.101562 18.574219 13.941406 23.164062 18.441406 24.929688 C 22.179688 26.398438 22.941406 26.109375 23.753906 26.035156 C 24.566406 25.960938 26.375 24.96875 26.742188 23.9375 C 27.109375 22.910156 27.109375 22.027344 27 21.84375 C 26.890625 21.660156 26.59375 21.550781 26.152344 21.328125 C 25.710938 21.109375 23.53125 20.042969 23.125 19.894531 C 22.722656 19.75 22.425781 19.675781 22.128906 20.117188 C 21.835938 20.558594 20.988281 21.550781 20.730469 21.84375 C 20.472656 22.136719 20.210938 22.175781 19.769531 21.953125 C 19.328125 21.734375 17.902344 21.269531 16.210938 19.765625 C 14.894531 18.597656 14.003906 17.15625 13.746094 16.714844 C 13.488281 16.273438 13.71875 16.035156 13.941406 15.816406 C 14.140625 15.617188 14.382812 15.300781 14.605469 15.042969 C 14.828125 14.785156 14.898438 14.601562 15.046875 14.308594 C 15.195312 14.015625 15.121094 13.757812 15.011719 13.535156 C 14.898438 13.316406 14.039062 11.136719 13.644531 10.265625 Z M 13.644531 10.265625 "/>
<path style=" stroke:none;fill-rule:nonzero;fill:rgb(100%,100%,100%);fill-opacity:1;" d="M 30.609375 5.175781 C 27.261719 1.84375 22.8125 0.00390625 18.074219 0.00390625 C 8.308594 0.00390625 0.359375 7.914062 0.355469 17.636719 C 0.355469 20.746094 1.171875 23.777344 2.722656 26.453125 L 0.207031 35.589844 L 9.601562 33.136719 C 12.1875 34.542969 15.101562 35.285156 18.066406 35.285156 L 18.074219 35.285156 C 27.839844 35.285156 35.789062 27.375 35.792969 17.652344 C 35.792969 12.9375 33.953125 8.507812 30.609375 5.175781 Z M 18.074219 32.304688 L 18.070312 32.304688 C 15.425781 32.304688 12.835938 31.597656 10.574219 30.261719 L 10.035156 29.945312 L 4.460938 31.402344 L 5.949219 25.992188 L 5.597656 25.4375 C 4.125 23.105469 3.347656 20.40625 3.347656 17.636719 C 3.351562 9.554688 9.957031 2.980469 18.078125 2.980469 C 22.015625 2.984375 25.710938 4.511719 28.492188 7.28125 C 31.273438 10.050781 32.800781 13.734375 32.800781 17.648438 C 32.796875 25.730469 26.191406 32.304688 18.074219 32.304688 Z M 18.074219 32.304688 "/>
</g>
</svg>
